# xmcd
#
# Track frame offsets:
#	150
#	13704
#	32472
#	46728
#	62584
#	80211
#	97845
#	113016
#	128405
#	146659
#	163666
#	177549
#	198583
#	213210
#	230259
#	246848
#	261558
#	275855
#	294987
#
# Disc length: 4147 seconds
#
# Revision: 2
# Processed by: cddbd v1.5.2PL0 Copyright (c) Steve Scherf et al.
# Submitted via: audiograbber 1.83.01
#
DISCID=0f103113
DTITLE=Various Artist - CDX 507
DYEAR=2010
DGENRE=Country
TTITLE0=Randy Rouser - A Man Like Me
TTITLE1=Brad Paisley - Anything Like Me
TTITLE2=Joanna Smith - Gettin' Married
TTITLE3=Locash Cowboys - Keep In Mind
TTITLE4=Jason Aldean - My Kinda Party
TTITLE5=Jamey Johnson - Playing the Part
TTITLE6=Mary Chapin Carpenter - The Way I Feel 
TTITLE7=Due West -  Bible and the Belt 
TTITLE8=Mickey Utley - Cry Like Memphis
TTITLE9=James Lann - Every Kiss Goodnight 
TTITLE10=Scott Lindsey - Get To Her in a Hurry
TTITLE11=Joe Visconti - Good Luck Back
TTITLE12=Karli Whetstone - I Didn't
TTITLE13=Lucy Angel - Only Woman Left
TTITLE14=Jason Sturgeon - Rollin' On
TTITLE15=Levi Riggs - Tailgate Time
TTITLE16=Branch and Dean - Your Ol' Lady's Gone
TTITLE17=Billy Bob Shane - You're Drivin' Me Sane
TTITLE18=Steve Richard - Eighty Acre Church
EXTD=
EXTT0=
EXTT1=
EXTT2=
EXTT3=
EXTT4=
EXTT5=
EXTT6=
EXTT7=
EXTT8=
EXTT9=
EXTT10=
EXTT11=
EXTT12=
EXTT13=
EXTT14=
EXTT15=
EXTT16=
EXTT17=
EXTT18=
PLAYORDER=
